<svg width="24" height="22" viewBox="0 0 24 22" fill="none" xmlns="http://www.w3.org/2000/svg">
<g id="Group 7250">
<g id="&#240;&#159;&#166;&#134; icon &#34;messages 3&#34;">
<g id="Group">
<path id="Vector" d="M16.212 11.4443V15.8455C16.212 16.2347 16.1661 16.6024 16.0627 16.9376C15.638 18.5273 14.2373 19.5221 12.3086 19.5221H9.18597L5.71889 21.6957C5.20227 22.0309 4.51344 21.6741 4.51344 21.0901V19.5221C3.34244 19.5221 2.36661 19.1545 1.68927 18.5165C1.00044 17.8676 0.610107 16.9485 0.610107 15.8455V11.4443C0.610107 9.38964 1.96479 7.97304 4.05423 7.78921C4.20347 7.77839 4.35272 7.76758 4.51344 7.76758H12.3086C14.6506 7.76758 16.212 9.23825 16.212 11.4443Z" fill="white"/>
<path id="Vector_2" d="M18.6921 14.9059C20.1501 14.9059 21.3785 14.4517 22.228 13.6407C23.0891 12.8405 23.5712 11.6834 23.5712 10.3101V4.79506C23.5712 2.25383 21.39 0.199219 18.6921 0.199219H8.93373C6.23584 0.199219 4.05457 2.25383 4.05457 4.79506V5.6061C4.05457 5.90888 4.30713 6.14678 4.62858 6.14678H12.309C15.4202 6.14678 17.9344 8.515 17.9344 11.4455V14.3652C17.9344 14.668 18.1869 14.9059 18.5084 14.9059H18.6921Z" fill="white"/>
</g>
</g>
</g>
</svg>
